<svg width="671" height="799" viewBox="0 0 671 799" fill="none" xmlns="http://www.w3.org/2000/svg">
<path d="M417.333 78.3997C414.533 79.333 408 86.2663 408 88.3997C408 89.4663 406.4 91.5996 404.533 93.4663C400.533 97.333 392.666 113.866 391.6 120.666C391.466 122.133 390.933 123.866 390.4 124.666C387.866 128.933 383.733 164.666 384.533 175.333C384.8 178.266 385.466 185.466 386 191.333C386.533 197.2 387.066 202.533 386.933 203.333C386.266 214 385.2 221.466 384.133 225.333C382.133 231.6 382.266 239.6 384.4 240.4C385.6 240.933 385.6 241.333 384.266 242.4C383.333 243.066 382.933 244.533 383.466 245.733C384 247.333 383.6 248 382.133 248C380.933 248 380.4 248.8 380.8 249.866C381.2 250.933 380.8 253.066 380 254.666C378.666 257.066 378.8 257.866 380.133 258.8C382.8 260.4 384.4 258.666 382.4 256.266C380.8 254.266 380.933 254.133 382.933 255.733C384.8 257.2 384.933 258 383.6 260.133C382.666 261.6 381.866 262.133 381.6 261.333C381.333 260.666 380.133 260 378.933 260.133C377.733 260.133 377.333 260.533 378.133 260.8C379.866 261.6 378.933 268 377.066 268C376.4 268 376.266 266.8 376.666 265.333C377.2 263.6 376.933 262.666 375.866 262.666C374.933 262.666 374.666 263.066 375.066 263.6C375.6 264 375.333 265.2 374.533 266.133C372.8 268.266 374.266 271.066 376.4 269.733C377.333 269.2 377.066 269.866 376 271.333C374.933 272.666 374 275.333 374 277.2C374 279.466 372.666 281.466 369.733 283.333C365.733 286.133 365.733 286.266 368.133 288C369.866 289.333 370.133 290.133 369.066 290.8C368 291.466 368.266 292.533 370 294.266C372.266 296.4 372.266 296.666 370.266 297.066C369.066 297.333 368 298.133 368 298.933C368 299.733 367.6 300 367.2 299.6C366.666 299.066 367.066 297.866 368 296.666C369.333 295.066 369.2 294.533 366.666 293.6C363.866 292.533 363.866 292.4 366 291.466C368.266 290.666 368.266 290.533 365.866 288.8C362.533 286.266 359.733 288.533 360.666 292.933C361.066 295.333 360.533 296.4 358.8 296.933C356.8 297.466 356.4 298.933 356.266 306.133C356.266 310.8 356.8 314.666 357.466 314.666C358 314.666 358.266 313.6 357.866 312.266C357.333 310.933 357.466 310.533 358.266 311.466C358.8 312.266 360.266 313.333 361.333 313.733C362.933 314.266 362.8 314.533 361.066 314.533C359.733 314.666 358.666 315.333 358.666 316.266C358.666 317.466 358.266 317.466 357.066 316.266C354.933 314.133 350.133 314.133 351.466 316.266C352.133 317.333 351.733 317.333 350.133 316.133C348.133 314.533 347.866 314.533 348.266 316.133C348.533 317.2 348 317.866 347.2 317.733C346.266 317.6 345.733 318.4 345.866 319.733C345.866 320.933 345.2 321.866 344.4 321.6C343.333 321.466 342.666 322.8 342.666 325.333C342.666 327.466 343.333 329.333 344.266 329.333C345.066 329.333 345.333 329.733 344.933 330.133C344.4 330.666 343.066 330.266 341.866 329.2C339.733 327.466 339.733 327.6 341.066 330.133C341.866 331.733 342.266 333.333 341.733 333.733C341.333 334.266 342 334.933 343.2 335.466C344.933 336.133 344.266 337.2 340 341.066C336.4 344.133 335.066 346.266 335.866 347.066C337.2 348.4 341.333 345.333 341.333 342.933C341.333 342.266 342.133 341.733 343.2 341.733C344.8 341.733 344.666 342.4 342.933 344.8C340 348.8 337.466 349.733 335.2 347.866C333.733 346.666 333.333 346.8 333.333 348C333.333 349.066 332.933 349.333 332.533 348.933C332 348.4 332.4 347.066 333.333 345.866C334.8 344.266 334.8 343.6 333.6 342.8C332.533 342.266 332.266 340.666 332.8 339.2C333.333 337.866 333.2 337.066 332.666 337.733C332 338.266 331.466 340 331.333 341.733C331.066 343.333 330.266 344.533 329.466 344.266C328.666 344.133 328 345.066 328 346.4C328 347.866 326.666 349.6 325.066 350.533C323.333 351.333 323.066 351.733 324.266 351.466C325.6 351.066 326.933 351.333 327.333 352.133C327.866 352.8 327.733 353.333 327.066 353.2C324.4 352.8 323.466 353.466 325.333 354.666C327.066 355.733 327.066 356 325.066 356C323.866 356 322.533 355.2 322.133 354.266C321.733 353.466 321.733 354 322.133 355.6C322.533 357.333 322.4 358.666 322 358.666C320.533 358.666 317.333 354.933 317.333 353.333C317.333 352.533 316.4 350.933 315.333 349.866C312.666 347.2 312.666 344.4 315.333 346.666C316.4 347.466 318 348 318.933 347.6C320 347.066 319.866 346.8 318.4 346.8C317.066 346.666 316 345.6 316 344.4C316 342.533 315.466 342.8 312.666 345.333C309.066 348.666 308.266 352 311.066 352C311.866 352 311.2 353.333 309.333 354.8C307.466 356.266 306.666 357.2 307.6 356.8C308.4 356.266 309.466 356.533 310 357.333C310.4 358 309.6 358.666 308.133 358.666C304.666 358.666 305.333 361.733 310 366.666C312.133 368.933 313.066 370.666 312 370.666C311.066 370.666 309.466 371.733 308.4 372.933C306.8 374.933 306.8 374.666 308.4 371.866C310.266 368.8 310.266 368.4 308 366.933C306.533 366 305.2 365.866 304.666 366.666C304.266 367.333 304.533 368.133 305.066 368.533C305.733 368.933 306 370.8 305.6 372.666C305.333 374.666 305.6 376 306.666 376C307.6 376 307.466 376.8 306.133 378.133C304.933 379.2 304.4 380.933 304.933 381.733C305.6 382.8 306.133 382.533 306.4 380.933C306.666 379.733 307.466 378.666 308.266 378.666C308.933 378.666 309.2 379.6 308.8 380.8C308.266 382.4 308.533 382.8 310 382.266C311.066 381.733 312.266 382.133 312.8 382.933C313.333 383.866 313.2 384 312.266 383.466C311.333 382.933 310.666 383.066 310.666 383.866C310.666 386.266 306 388 303.866 386.4C302.266 385.333 302.4 385.2 304.133 385.733C305.333 386.133 307.066 385.866 308.133 385.2C309.6 384.266 309.466 384 307.333 383.866C305.866 383.733 303.733 383.733 302.666 383.866C300.933 384.133 300.933 384 302.666 382.8C304.4 381.6 304.266 381.333 302 381.333C299.6 381.333 299.6 381.2 302.4 379.2C304.666 377.733 305.066 376.666 304.133 375.466C303.333 374.533 303.066 373.466 303.466 372.933C303.866 372.533 303.6 371.2 302.933 369.866C301.733 367.733 301.466 367.866 300 370.8C298.4 373.733 298.4 373.866 300.4 372.133C301.866 371.066 302.666 370.933 302.666 371.733C302.666 372.533 301.466 373.866 300 374.666C298.533 375.466 297.333 376.666 297.333 377.466C297.333 378.266 298.266 377.866 299.466 376.8C302 374.133 302.666 374.133 302.666 376.666C302.666 377.733 301.2 378.933 299.333 379.466C297.466 379.866 296 380.8 296 381.466C296 382.133 296.4 382.533 297.066 382.4C297.6 382.133 298 382.4 298 382.8C298 383.2 298.666 384.4 299.6 385.466C300.666 386.8 300.8 388 299.733 389.333C298.666 391.066 298.533 390.933 299.066 389.066C299.733 387.333 298.933 386.933 295.066 386.933C292 386.933 290.933 387.333 292 388C293.466 388.933 293.466 389.466 292.133 391.2C289.866 394 291.2 395.733 295.466 395.2C298.8 394.933 298.8 394.933 296.533 397.466C294.533 399.733 294 399.866 293.066 398C292 396.266 291.333 396.533 288.533 399.333C286.666 401.2 284.666 402.666 284 402.666C281.6 402.666 282.666 404.933 285.733 406.4C287.333 407.2 287.866 407.866 286.8 407.866C285.733 408 282.933 406.533 280.4 404.533C277.066 402 276 401.6 276 403.2C276 404.4 275.333 405.333 274.666 405.333C273.866 405.333 273.866 406.266 274.8 407.733C276 409.6 276 410.933 274.933 412.8C273.733 414.8 273.466 414.933 273.333 413.2C273.333 412 272.4 411.066 271.333 411.066C270 411.066 269.733 411.6 270.666 412.666C272.533 414.933 271.466 420.4 269.2 421.066C267.733 421.466 267.733 421.2 269.333 420.133C271.066 418.933 271.066 418.666 269.066 418.666C267.733 418.666 266.666 418 266.666 417.2C266.666 416.4 267.6 416 268.666 416.533C271.333 417.466 271.2 417.066 267.733 414.133C265.6 412.266 265.066 412.133 265.733 413.733C266.933 416.8 265.466 417.333 262.666 415.066C260.666 413.333 260.533 412.4 261.6 409.866C262.8 407.333 262.666 406.133 260.666 404C258.666 401.733 258.533 401.066 260.133 399.066C261.733 397.066 261.733 396.933 260 398C258.4 398.8 258.266 398.666 259.733 397.2C261.866 394.933 261.733 393.733 259.333 393.733C258.266 393.733 257.333 394.4 257.333 395.066C257.333 395.866 256.933 396 256.533 395.6C255.2 394.266 258.8 390.533 260.4 391.6C261.2 392.133 261.333 391.733 260.8 390.8C260.133 389.866 258.8 389.466 257.733 389.866C256.266 390.4 256 390.133 256.533 388.666C257.466 386.133 255.466 386 253.466 388.4C252.4 389.733 252.533 390.666 253.733 391.866C254.533 392.666 253.333 392.533 250.933 391.333C248.666 390.133 246.666 388.4 246.666 387.333C246.666 386.4 245.733 384.933 244.666 384C243.066 382.666 242.533 382.8 241.866 384.666C241.066 386.666 242.133 388 248.533 392.266C249.333 392.8 249.6 393.466 249.2 393.866C248.8 394.266 246.266 392.533 243.466 390L238.4 385.333L241.466 382.8C243.333 381.333 244.133 379.733 243.466 379.066C242.8 378.533 242 378.8 241.733 379.6C240.933 382 238.666 381.733 238.666 379.466C238.666 378.4 238 377.066 237.066 376.533C236 375.866 235.866 376.266 236.4 377.733C236.933 379.066 237.733 380.933 238.266 382.266C238.933 383.866 238.666 384.133 237.2 383.333C235.6 382.266 235.6 382.533 237.2 384.4C238.533 386.133 238.533 386.666 237.333 386.666C236.4 386.666 238 388.8 240.8 391.333C243.733 393.866 245.333 396 244.4 396C243.466 396 243.066 397.733 243.333 400.933C243.6 403.733 243.466 405.2 243.066 404.266C242.133 402 237.466 410.666 238.266 413.066C238.666 414.133 240.133 414.4 241.866 414C244.133 413.333 244.266 413.466 242.666 414.533C241.6 415.333 239.733 416 238.666 416C237.066 416 236.666 417.2 236.933 420.933C237.2 423.733 236.933 425.2 236.533 424.266C235.466 422 232.933 422.266 233.733 424.533C234.133 425.6 233.466 426.666 231.866 427.066C229.6 427.733 229.333 428.266 230.666 430.533C231.866 432.8 231.733 433.333 230 433.333C228.8 433.333 228.133 433.866 228.666 434.533C229.066 435.2 231.066 435.6 233.066 435.333C235.066 435.066 235.866 435.066 234.933 435.466C234.133 435.866 233.733 436.933 234.266 437.733C234.933 438.8 234.533 438.8 233.066 437.733C232 436.8 230.666 436.4 230.266 436.933C228.8 438.266 229.2 442.933 230.666 442C231.466 441.466 231.6 440.533 231.2 439.733C230.666 438.8 230.933 438.666 231.733 439.2C234.4 440.8 233.6 442.266 229.066 444.533C226.666 445.6 225.6 446.666 226.666 446.8C227.733 446.8 227.2 447.333 225.466 447.866C222.533 448.666 222.4 448.933 224.4 450.933C227.466 453.866 227.333 455.6 224.266 452.933C222.133 451.066 221.733 451.066 218.666 453.333C216.666 454.933 216.133 456 217.2 456C218.266 456 218.666 456.4 218.266 456.8C217.733 457.333 216.4 456.933 215.066 455.866C213.866 454.8 213.2 454.666 213.733 455.466C214.266 456.533 213.466 456.933 211.333 456.8C209.466 456.8 208.266 456 208.533 455.333C208.8 454.533 209.733 454.133 210.533 454.4C211.333 454.533 212 453.733 212 452.666C212 451.6 211.466 450.666 210.666 450.666C210 450.666 209.333 449.466 209.333 448C209.333 446.533 208.666 445.333 207.866 445.333C207.2 445.333 206.8 445.866 207.2 446.4C208 447.6 198.266 457.733 197.2 456.8C196.933 456.533 195.866 457.066 194.933 458.133C194 459.2 193.866 460 194.666 460C195.333 460 196 460.533 196 461.333C196 462 195.2 462.666 194.133 462.666C193.066 462.666 191.866 463.733 191.6 464.933C191.066 467.066 190.933 467.066 190.8 465.066C190.666 463.733 189.6 462.933 187.866 463.066C185.466 463.2 185.333 463.466 187.333 464.8C188.8 465.866 188.933 466.666 188 467.333C187.333 467.733 187.066 468.933 187.466 469.733C188 470.666 188 470.933 187.333 470.4C186.8 469.866 185.466 470 184.533 470.8C182.666 472.4 180 471.333 180 469.066C180 468.133 180.8 468.266 182 469.333C183.066 470.266 184 470.4 184 469.6C184 468.933 183.066 467.6 182 466.666C180.933 465.733 180 465.6 180 466.133C180 466.8 178 468.133 175.733 469.2C170.533 471.466 144.8 496.8 145.866 498.533C146.266 499.2 145.6 499.6 144.4 499.466C143.066 499.466 141.2 501.066 140 503.733C138.8 506.133 137.6 507.733 137.2 507.333C136 506.266 121.333 514.266 122.4 515.333C122.933 516 122.533 516 121.6 515.466C120.666 514.933 120.4 513.866 120.8 513.066C121.466 512.133 120.933 511.866 119.6 512.4C118.4 512.8 117.066 512.666 116.666 512C116.266 511.2 114.666 510 113.2 509.333C111.2 508.266 110.666 508.4 110.666 509.866C110.666 510.933 111.866 512.133 113.2 512.666C116.133 513.6 117.866 518.266 115.2 518.266C114.266 518.266 113.466 517.866 113.6 517.466C113.866 514.933 113.2 513.333 111.866 513.333C111.066 513.333 110.8 514.4 111.2 515.733C111.733 517.466 111.066 518.8 108.666 520C106.933 520.933 105.866 522.4 106.266 523.2C106.8 524 106.133 523.866 104.933 522.8C101.866 520.4 102.133 518.666 105.333 519.333C106.933 519.6 107.733 519.333 107.333 518.533C106.8 517.866 105.866 517.733 105.066 518.133C104.133 518.666 104 518.4 104.533 517.466C105.066 516.666 106.133 516.266 106.8 516.666C107.466 517.2 108 516.933 108 516.133C108 515.333 106.8 514.133 105.466 513.333C102.4 511.733 99.8664 511.6 102.4 513.066C104.133 514.266 103.2 518.666 101.2 518.666C100.666 518.666 100.4 519.466 100.8 520.4C101.066 521.333 99.8664 522.933 97.9997 524C95.733 525.2 95.0664 526.266 95.9997 527.2C96.6664 527.866 97.333 529.2 97.333 530C97.333 530.666 96.6664 530.4 95.8664 529.333C94.7997 527.866 94.2664 527.733 93.733 528.933C93.0664 530.933 89.333 531.333 89.333 529.466C89.333 528.8 89.9997 528 90.933 527.733C91.8664 527.333 91.9997 526.533 91.333 525.333C90.533 524 89.8664 524 88.533 525.866C86.933 528.133 86.6664 528 83.9997 525.333C81.9997 523.333 80.6664 522.8 79.733 523.733C78.933 524.533 77.4664 524.8 76.3997 524.4C74.2664 523.6 66.3997 530.4 67.4664 532.266C67.8664 532.8 66.933 533.333 65.4664 533.333C62.933 533.333 62.7997 533.6 64.2664 536C65.733 538.266 66.133 538.4 67.0664 536.533C67.733 535.333 68.3997 533.733 68.533 532.933C68.7997 530.533 70.6664 528 71.9997 528C72.6664 528 72.7997 529.066 72.3997 530.266C71.5997 532.4 71.733 532.533 73.9997 530.666C75.4664 529.466 76.133 529.333 75.4664 530.266C74.933 531.2 75.1997 532 75.8664 532C76.6664 532 77.333 531.066 77.333 529.866C77.333 528.4 78.133 528 80.2664 528.8C83.0664 529.6 83.1997 529.466 81.333 527.2C79.5997 524.933 79.733 524.933 82.533 527.333C85.0664 529.466 85.1997 530.133 83.4664 530.4C82.2664 530.666 81.333 531.466 81.333 532.133C81.333 532.8 80.133 533.333 78.533 533.333C77.0664 533.333 76.2664 534 76.6664 534.666C77.0664 535.333 76.7997 536 76.133 536C75.333 536 74.6664 535.333 74.6664 534.666C74.6664 533.866 73.8664 534 72.7997 534.933C71.5997 536 71.4664 536.933 72.2664 537.466C73.0664 538 72.933 538.666 71.8664 539.066C70.6664 539.466 70.533 539.866 71.5997 539.866C72.3997 540 73.5997 539.333 73.9997 538.666C75.5997 536.133 76.933 537.333 76.2664 540.8C75.8664 543.333 75.333 543.733 74.533 542.4C73.733 541.2 73.333 541.2 73.333 542.266C73.333 544.533 76.133 546 77.1997 544.266C77.733 543.333 78.933 543.466 80.533 544.8C83.0664 546.533 82.933 546.666 79.1997 546.8C77.0664 546.933 74.933 546.933 74.2664 546.8C73.733 546.666 73.733 549.066 74.133 552.133C74.7997 556.133 74.533 557.866 73.1997 558.8C71.733 559.733 71.8664 560 73.8664 560C75.9997 560 75.9997 560.266 73.1997 562.666C71.4664 564 70.7997 565.2 71.5997 565.333C72.7997 565.333 72.933 566.266 71.9997 568.8C70.3997 572.933 70.3997 573.333 71.8664 573.333C72.533 573.333 73.4664 571.6 73.9997 569.466C75.0664 564.4 79.5997 562.4 83.8664 565.2L87.0664 567.333L84.7997 563.733C82.3997 560.133 82.7997 557.333 85.733 557.333C86.7997 557.333 86.6664 557.733 85.4664 558.533C83.5997 559.733 84.533 562.666 86.7997 562.666C87.5997 562.666 87.8664 562.266 87.5997 561.6C87.1997 561.066 87.733 560 88.6664 559.066C89.9997 557.866 90.6664 557.866 90.933 558.933C91.1997 559.733 92.2664 560 93.1997 559.466C94.3997 558.666 94.3997 558 93.0664 556.4C91.4664 554.4 91.5997 554.4 94.133 556C96.6664 557.6 97.333 557.466 99.333 555.6C100.533 554.4 102 553.333 102.666 553.333C103.333 553.333 103.6 552.533 103.2 551.466C102.666 550 103.2 549.733 105.6 550.266C108 550.8 108.266 550.666 106.666 549.466C105.066 548.266 105.333 548 108.266 548C110.133 548 112 547.333 112.266 546.4C112.933 544.533 121.6 544.133 123.066 546C123.733 546.666 124 545.733 123.6 543.733C123.333 541.733 123.6 540.4 124.133 540.8C124.8 541.2 125.333 542.4 125.333 543.333C125.333 545.6 131.6 545.6 134.533 543.466C136 542.4 136.266 542.4 135.466 543.6C134.266 545.733 144.8 545.066 149.066 542.8C150.666 542 152 541.6 152 542.133C152 542.533 152.933 542.266 154 541.333C155.066 540.533 156.533 540.133 157.333 540.666C158 541.066 158.666 540.666 158.666 539.733C158.666 538.533 160.266 537.866 163.066 538C165.333 538 168.933 536.933 170.8 535.733C172.666 534.4 174.666 533.733 175.2 534.266C175.6 534.666 176 534.4 176 533.466C176 532.4 176.933 532 178 532.533C179.066 532.933 180 532.666 180 532C180 531.2 179.066 530.666 178 530.666C176.933 530.666 176 530 176 529.333C176 528.533 175.466 528 174.666 528C174 528 173.733 528.8 174.133 529.866C174.666 531.333 174.133 531.6 172.133 531.066C170.533 530.666 169.333 529.866 169.333 529.2C169.333 528.533 168.666 528 167.866 528C167.2 528 166.933 528.533 167.333 529.333C167.733 530.133 167.2 530.266 166.133 529.866C164.933 529.466 164 528.533 164 527.733C164 527.066 164.666 526.933 165.333 527.333C166.133 527.733 166.666 527.333 166.666 526.133C166.666 525.066 167.466 523.866 168.4 523.6C169.333 523.2 169.066 522.8 167.733 522.8C166.4 522.666 165.333 523.333 165.333 524.266C165.333 525.066 164.933 525.333 164.533 524.933C164 524.4 164.4 523.2 165.2 522.133C166.133 521.066 166.533 519.466 166 518.666C165.6 518 165.866 517.333 166.533 517.333C167.333 517.333 168 518 168 518.933C168 520.133 168.4 520.133 169.6 518.933C170.933 517.6 170.933 517.066 169.6 516.133C167.733 515.066 168.8 510.666 170.933 510.666C171.6 510.666 171.733 511.333 171.2 512.133C170.8 512.933 171.2 514.133 172.133 514.8C173.2 515.466 174.266 515.2 174.933 514.266C175.733 513.066 176.533 513.066 178.4 514.266C180.666 515.6 180.933 515.333 180.533 512.533C180.266 509.6 180.533 509.466 182.4 510.933C183.6 511.866 184.133 512 183.6 511.2C183.066 510.266 183.6 509.333 184.666 508.8C185.733 508.4 186.666 507.333 186.533 506.4C186.533 505.066 186.266 505.066 185.733 506.266C185.466 507.2 184.533 508 183.733 508C182.8 508 182.933 507.333 183.866 506.133C184.8 505.066 186.8 504.4 188.533 504.533C191.066 504.933 191.466 504.4 190.933 502.133C190.266 499.733 190.533 499.6 192.266 501.066C194.133 502.533 194.933 502.4 197.2 500.533C198.666 499.2 199.6 497.733 199.2 497.066C198.8 496.533 199.2 496 200 496C200.8 496 201.066 495.333 200.533 494.4C200 493.466 200.133 493.333 201.066 493.866C202 494.4 202.666 494 202.666 493.066C202.666 491.733 203.066 491.866 204 493.333C204.933 494.933 205.6 494.8 208.266 492.666C214.933 486.8 215.066 486.666 213.333 484.666C211.066 481.866 213.066 482.133 215.733 484.933C217.866 487.066 218 486.933 218.533 484.666C218.8 482.666 219.2 482.666 220.266 484.133C221.2 485.6 221.733 485.6 222.266 484.266C222.533 483.466 223.466 482.933 224.133 483.466C224.8 483.866 225.333 483.6 225.333 482.8C225.333 482.133 224.533 481.2 223.733 480.933C222.666 480.4 222.8 480.133 224.266 480.133C225.466 480 226.8 480.8 227.066 481.6C227.466 482.533 227.866 482 227.866 480.266C228 478.666 228.666 477.333 229.466 477.333C230.133 477.333 230.4 477.866 230 478.666C229.6 479.466 230.533 480 232.266 480C235.333 479.866 235.333 479.866 231.733 476.666C226.533 472.133 227.066 470.933 232.266 475.333C235.066 477.733 237.333 478.666 239.2 478.133C240.8 477.733 242.4 477.333 242.933 477.333C243.466 477.333 243.6 476.4 243.2 475.333C242.533 473.866 242.933 473.6 244.533 474.133C245.733 474.533 248.133 474 250 472.8C251.733 471.6 255.466 470.666 258.266 470.666C261.066 470.666 264.4 469.733 265.733 468.666C267.2 467.733 268.933 467.066 269.733 467.2C270.666 467.466 270.933 467.333 270.4 467.066C269.866 466.8 269.866 465.6 270.266 464.4C270.8 462.933 270.533 462.533 269.2 462.933C268.133 463.333 267.466 464.4 267.733 465.2C267.866 466 267.466 466.666 266.666 466.666C264.666 466.666 265.066 464.133 267.333 461.866C268.933 460.133 269.466 460.4 271.466 463.333C273.2 466 274 466.4 274.8 465.066C275.733 463.6 276 463.6 276 465.066C276 466 276.666 466.4 277.466 466C278.4 465.333 278 464.133 276.4 462.4C274 459.733 274 459.6 276.933 461.2C278.533 462 281.066 462.666 282.533 462.666C284.133 462.666 285.333 463.333 285.333 464.133C285.333 466.666 295.866 459.733 296.266 456.8L296.666 454L299.466 456.8C301.066 458.4 302.933 459.333 303.466 458.8C304.133 458.4 303.066 456.4 301.066 454.4C298.933 452.4 297.333 451.2 297.333 451.733C297.333 452.133 296.666 451.866 295.866 451.066C294 449.2 290.666 450.266 290.666 452.933C290.666 454.266 289.866 454.533 288.133 454C286.666 453.6 285.2 453.866 284.666 454.666C284.266 455.466 283.333 455.733 282.666 455.333C282 454.933 280.4 455.2 279.066 455.866C275.733 457.6 271.6 459.2 269.866 459.333C269.066 459.333 267.466 460.133 266.266 461.066C265.2 462 263.466 462.533 262.533 462.4C261.466 462.133 260.8 462.8 261.066 463.6C261.2 464.533 260.8 465.333 260 465.333C259.333 465.333 258.666 464.8 258.666 464.266C258.666 463.733 257.466 463.2 256 463.066C254.533 462.933 253.333 463.333 253.333 464.133C253.333 464.8 253.866 465.333 254.533 465.333C255.2 465.333 256 466.133 256.4 467.066C256.8 468.133 256.266 468.933 255.333 468.933C254.266 468.933 253.6 468.533 253.733 468.133C253.866 467.733 253.466 467.333 252.666 467.333C252 467.333 251.466 467.733 251.733 468.266C252.133 469.866 249.6 469.6 248.666 468C248.266 467.2 248.533 466.666 249.333 466.666C250.133 466.666 250.4 466 249.866 465.066C249.333 464.133 249.466 464 250.4 464.533C251.333 465.066 252 464.8 252 464.133C252 462.133 250.4 462.266 246.933 464.666C244.266 466.533 244.133 466.533 244.8 464.666C245.2 463.6 244.933 462.666 244.133 462.666C242.8 462.666 242.133 464.4 242.533 466.933C242.533 467.466 241.733 467.6 240.666 467.2C239.6 466.666 238.666 467.066 238.666 468.133C238.666 469.066 238.266 469.333 237.733 468.933C237.333 468.4 235.333 468.933 233.466 470C230.8 471.6 230.8 471.466 234 469.066C241.2 463.466 245.466 458.266 243.6 457.066C242.4 456.266 242.4 456 243.6 456C244.4 456 245.6 456.533 246 457.333C246.4 458 247.866 458.666 249.066 458.533C250.933 458.533 250.933 458.266 249.333 457.733C246.666 456.666 244 453.866 244 452.133C244 451.333 243.333 450.666 242.4 450.666C241.6 450.666 241.333 450.266 241.866 449.733C242.4 449.2 244.266 450.533 246 452.533C249.066 456.133 253.333 456.666 253.333 453.333C253.333 452.533 253.866 452.266 254.666 452.666C255.466 453.066 255.6 452.533 255.066 451.333C254.666 450.133 253.066 448.533 251.466 448C248.933 446.933 249.066 446.8 252.4 446.8C254.533 446.666 255.866 447.2 255.333 448C254.933 448.666 255.2 449.333 255.866 449.333C256.666 449.333 257.333 448.666 257.333 448C257.333 447.2 258 446.666 258.8 446.666C259.466 446.666 259.733 447.2 259.333 448C258.133 449.866 259.733 449.733 261.866 447.733C263.2 446.4 263.2 445.733 261.466 443.733C259.066 440.933 258 436.133 260.4 438.533C261.333 439.466 262 440.8 262 441.733C262 442.666 263.466 443.6 265.2 443.733C267.2 444 268 443.733 267.333 442.8C266.933 442 265.866 441.6 265.2 442C264.533 442.533 264 442.266 264 441.733C264 440.133 268.933 436.133 269.866 436.933C270.266 437.466 270.666 436.8 270.666 435.6C270.666 434.4 270.133 433.066 269.333 432.666C268.666 432.266 268 431.2 268 430.4C268 429.6 269.2 430.266 270.666 432C272.8 434.4 273.333 434.666 273.333 432.933C273.333 431.6 272.8 430.666 272 430.666C271.333 430.666 270.666 430.133 270.666 429.333C270.666 428.666 271.733 428.533 272.933 428.933C275.066 429.733 275.066 429.6 272.8 426L270.266 422L273.333 424.666C276 426.933 276.266 426.933 275.6 425.066C275.066 423.466 275.333 423.066 276.8 423.6C278.266 424.133 278.4 424.8 277.466 425.733C275.733 427.466 275.6 429.333 277.2 429.333C278.533 429.333 282.4 423.733 282.933 421.066C283.2 420.133 284.533 418.266 286 416.8C288.666 414.4 288.666 414.4 285.733 415.2C283.733 415.866 282.666 415.6 282.666 414.666C282.666 413.866 282.133 413.6 281.333 414C280.533 414.4 280 414.133 280 413.333C280 412.533 281.066 412.133 282.4 412.533C283.6 412.933 285.6 412.666 286.666 411.866C288.4 410.666 288.266 410.533 286.4 411.2C285.066 411.6 283.733 411.333 283.333 410.666C282.8 409.866 284.266 409.333 286.533 409.333C289.733 409.333 290.4 408.933 289.733 407.066C289.2 405.6 289.333 405.2 290.533 405.866C291.333 406.4 291.866 406.4 291.733 405.733C291.466 404.533 307.333 388 308.8 388C309.333 388 311.733 386.533 314.133 384.666C317.2 382.4 318.666 381.866 319.066 383.066C319.466 383.866 319.866 384 319.866 383.333C319.866 382.533 319.333 381.066 318.533 380C317.466 378.533 316.933 378.4 316.4 379.6C315.6 381.6 313.333 381.866 313.333 380C313.333 379.333 314.8 378.4 316.666 377.866C318.533 377.466 320 376.533 320 375.733C320 375.066 319.466 374.933 318.666 375.333C318 375.733 317.333 375.6 317.333 374.933C317.333 374.266 318.8 373.6 320.533 373.6C323.466 373.6 323.6 373.866 321.866 375.6C320 377.466 319.333 380 320.666 380C321.066 380 322.666 378.8 324.266 377.333C325.866 376 327.733 375.2 328.533 375.6C329.333 376.133 329.2 375.466 328.133 374.266C326.933 372.8 326.8 372 327.866 372C328.666 372 329.333 371.066 329.333 370C329.333 368.933 328.4 368 327.2 368C326.133 368 325.6 367.333 326 366.666C326.4 365.866 325.866 365.333 324.8 365.333C321.466 365.333 320.933 362.533 323.733 359.733C326.133 357.333 326.666 357.2 328.4 358.8C330 360.533 330 360.933 328.4 362.533C326.8 364 326.8 364.666 329.2 367.2C331.2 369.333 331.6 370.533 330.533 371.6C329.466 372.666 329.466 373.333 330.533 373.866C331.333 374.4 332 374.133 332 373.333C332 372.533 332.8 372 333.733 372.266C336.666 372.8 340.666 370.8 343.866 366.933C346.533 363.6 347.333 363.2 350.133 364.533C353.333 366 354.666 368.8 351.6 367.6C350.533 367.2 349.866 368 349.866 369.466C349.866 371.066 350.4 371.466 351.2 370.666C352.933 368.933 357.333 368.933 357.333 370.666C357.333 371.333 357.866 372 358.666 372C359.333 372 359.6 371.066 359.2 370C358.666 368.933 359.066 368 359.866 368C360.8 368 361.733 368.933 362.266 370.133C362.933 371.866 363.333 371.733 365.6 369.333C367.066 367.733 367.866 366.133 367.333 365.6C366.933 365.2 366 365.6 365.333 366.666C364.666 367.733 363.733 368.133 363.2 367.6C362.666 367.066 363.466 365.6 365.066 364.266C367.6 362 367.733 361.6 365.866 358.933C363.6 355.6 361.733 355.2 361.733 357.866C361.733 358.933 362.4 359.733 363.066 359.6C363.733 359.466 364.666 360.133 365.066 361.2C365.466 362.266 365.066 362.666 364.133 362.133C363.333 361.6 362.666 361.866 362.666 362.8C362.666 364.4 358.8 367.866 356.933 368C356.266 368 356.8 366.666 357.866 365.066C360.4 361.466 360.533 359.866 358.4 360.266C357.333 360.533 356.8 359.6 357.066 358C357.333 355.866 357.2 355.733 356.133 357.333C354.8 359.066 354.666 359.066 354.666 357.333C354.666 355.733 354.4 355.6 353.466 357.2C352.8 358.133 351.6 358.533 350.8 358.133C350 357.6 349.333 358.133 349.333 359.2C349.333 360.4 348.666 361.333 347.866 361.333C347.2 361.333 346.8 360.8 347.333 360C347.733 359.333 345.866 359.6 343.066 360.533C340.266 361.466 337.733 363.333 337.6 364.666C337.2 366.133 337.6 366.666 338.533 366.133C340.8 364.666 340.266 367.6 337.866 370C335.333 372.533 333.6 371.6 335.866 368.933C336.933 367.466 336.666 366.533 334.666 364.666C333.2 363.333 332.133 361.6 332.4 360.8C332.666 360 331.733 358.4 330.266 357.2C328.266 355.733 328 354.8 329.2 354.133C330.133 353.6 330.533 353.866 330.4 354.8C330.133 355.6 330.666 356.533 331.333 356.8C332.133 357.066 332.8 356.133 332.8 354.666C332.8 353.2 332.133 352 331.466 352C330.8 352 330.533 351.733 330.933 351.333C331.333 350.933 332.666 351.066 333.866 351.466C335.6 352.133 335.733 352.666 334.666 353.333C333.733 353.866 333.466 355.066 333.866 355.866C334.533 356.933 335.333 356.8 336.8 355.466C337.866 354.4 338.666 353.066 338.666 352.533C338.666 352 340.533 349.866 342.666 347.733C344.933 345.733 346.666 343.333 346.666 342.666C346.666 341.866 347.333 341.333 348.133 341.333C348.8 341.333 349.066 340.666 348.666 340C348.266 339.2 348.933 338.666 350.133 338.666C352.266 338.666 352.266 338.533 349.866 336.666C348.533 335.6 348 334.666 348.666 334.533C349.466 334.533 348.533 333.866 346.666 333.2C343.333 332.133 343.333 332 347.066 332.533C349.866 332.933 350.666 332.533 350.133 331.2C349.733 330.133 350 329.333 350.533 329.333C352.666 329.333 352.933 332.666 350.933 334.133C349.2 335.333 349.2 335.6 351.066 335.6C353.466 335.6 355.066 332.533 353.866 330.533C353.466 329.866 353.866 329.333 354.533 329.333C355.333 329.333 356 328.4 356 327.2C356 326.133 356.533 325.6 357.333 326C358.133 326.4 358.266 325.866 357.866 324.666C357.2 323.066 356.666 322.933 355.2 324.133C354 325.066 353.333 325.2 353.333 324.266C353.333 323.466 354.133 322.666 355.066 322.266C356.4 321.733 356.4 321.333 355.066 319.866C354.133 318.933 353.333 317.466 353.333 316.8C353.333 316 354.266 316.8 355.466 318.533L357.6 321.6L361.333 317.066C363.866 314.133 364.533 312.4 363.466 311.733C362.533 311.066 362.666 310.666 364 310.666C366.133 310.666 371.2 303.333 371.333 300C371.466 298.933 372.266 298.133 373.2 298.4C374.133 298.533 374.533 298.133 374 297.466C373.6 296.666 374.266 294.933 375.6 293.6C383.733 284.933 386.666 281.066 385.866 279.733C385.333 278.933 385.466 278.666 386.4 279.2C387.866 280.133 392.4 276.4 391.466 274.8C391.066 274.266 392 273.733 393.466 273.733C395.733 273.466 395.866 273.866 394.533 275.466C393.2 277.2 393.733 277.333 398.4 276.533C402 276 404.666 276.266 405.866 277.2C407.333 278.4 407.866 278.4 408.4 277.066C408.933 275.866 409.466 275.733 410.266 276.8C410.8 277.6 413.466 278.133 416 277.866C418.533 277.6 423.333 277.066 426.533 276.8C434.4 276.133 442 273.6 449.466 269.2C452.8 267.333 457.6 265.066 460.133 264.133C465.066 262.533 469.466 259.733 473.066 255.6C474.266 254.4 475.733 253.333 476.266 253.333C476.933 253.333 478.4 252.266 479.866 250.933C481.2 249.733 485.733 246.533 489.866 244C494 241.466 500.533 236.533 504.266 233.066C508.133 229.6 511.466 226.666 511.733 226.666C512 226.666 512.933 225.866 514 224.933C514.933 224.133 517.333 222.133 519.466 220.666C528.4 214.133 537.333 205.866 537.333 204C537.333 201.866 531.333 201.2 528.4 203.066C527.466 203.6 524.533 204 521.733 203.866C518.933 203.733 511.6 204.666 505.333 205.733C499.066 206.933 491.6 208.133 488.666 208.533C479.466 210 477.066 210.533 475.466 212C474.533 212.666 473.466 212.933 473.066 212.533C472.533 212.133 469.866 213.333 466.8 215.2C463.866 217.066 460.4 218.666 459.333 218.666C456.533 218.666 450.4 221.866 442.533 227.6C438.933 230.133 435.066 232 434 231.6C432.8 231.066 432.4 231.466 432.933 232.8C433.333 233.866 432.8 234.666 431.466 234.666C430.266 234.666 429.333 235.066 429.333 235.6C429.333 236.266 427.466 238.666 425.2 241.2L421.066 245.733L417.6 242C415.6 240 414.8 238.666 415.733 239.2C418.933 241.066 417.2 237.733 413.333 234.933C408.533 231.333 406.533 231.066 410.8 234.533C413.466 236.666 415.733 243.466 413.066 241.866C412.533 241.466 412 242.133 412 243.333C412 244.533 410.266 246.266 408 247.066C405.866 247.866 404 249.466 404 250.666C404 252.4 404.133 252.4 405.333 250.666C406.133 249.333 406.666 249.2 406.666 250.266C406.666 251.2 407.866 252 409.333 252C410.8 252 412 251.333 412 250.4C412 249.6 412.4 249.2 412.8 249.733C413.6 250.533 417.333 247.6 417.333 246.133C417.333 245.733 416.4 245.333 415.333 245.333C414.266 245.333 413.333 245.866 413.333 246.666C413.333 247.333 412.666 248 411.866 248C410.8 248 410.8 247.333 412 246C413.866 243.733 415.866 243.466 418.666 245.333C419.866 246.133 420.133 247.066 419.333 247.6C418.533 248.266 416.266 251.2 414.266 254.266C412.266 257.466 410 260 409.333 260C408.666 260 408.4 260.933 408.933 262.133C409.6 264 409.333 264.133 406.933 262.8C404.933 261.733 404 261.733 404 262.666C404 263.333 404.666 264 405.6 264C406.4 264 406.8 264.4 406.4 264.8C405.466 265.733 399.733 262.933 398.4 260.8C397.866 260 396.933 259.866 396.4 260.533C395.866 261.2 396.266 262.266 397.6 263.066C399.466 264.4 399.466 264.8 396.533 266.933C394.133 268.933 392.8 269.2 391.066 268.133C388.933 266.933 389.066 266.8 392 267.066C394.133 267.2 395.333 266.533 395.733 264.933C396 263.466 395.333 262.666 393.866 262.666C391.733 262.666 391.866 262.266 394.4 259.866C397.066 257.466 397.6 257.333 399.466 259.2C402 261.866 402.666 261.866 402.666 259.333C402.666 258.133 401.2 256.666 399.333 256C396.133 254.8 394.666 252 397.333 252C398.133 252 398.666 252.666 398.666 253.6C398.666 254.4 399.066 254.666 399.6 254.266C400 253.733 401.6 254.266 402.933 255.6C405.2 257.6 405.333 257.6 405.333 255.6C405.333 254.266 404.4 253.333 403.2 253.333C402 253.333 401.6 252.666 402.133 251.733C402.666 250.933 402.533 250.666 401.6 251.2C400.8 251.6 399.866 251.466 399.333 250.666C398.933 250 399.6 249.333 400.933 249.333C402.8 249.2 402.533 248.8 400 247.6C398.133 246.666 396.533 245.2 396.266 244.133C395.866 242.533 396.266 242.533 397.866 243.866C399.466 245.2 400.666 245.066 404 243.333C406.266 242.133 408.8 241.6 409.733 242.133C410.666 242.666 409.866 241.6 408.266 239.733C405.333 236.533 405.333 236.133 407.6 235.6C409.866 234.933 409.866 234.933 407.466 234.8C405.866 234.666 405.333 234 405.866 232.533C406.4 231.333 406.133 230.8 405.2 231.466C404.4 232 403.2 231.466 402.533 230.533C400.933 227.866 401.066 226.666 403.066 226.666C404.133 226.666 404.933 225.733 404.933 224.666C404.933 223.6 404.4 223.066 403.866 223.333C403.333 223.733 402.666 223.066 402.133 222C401.333 219.733 398.666 219.333 398.666 221.466C398.666 222.133 399.333 222.4 400 222C400.8 221.6 401.333 222.4 401.333 223.866C401.333 225.333 400.666 226.933 400 227.333C399.2 227.866 399.466 228.933 400.666 230.133C403.466 232.933 403.2 234.266 399.733 235.066C395.866 236.133 394.933 235.066 398 232.8C400.266 231.2 400.266 231.066 397.466 230.266C395.333 229.733 394.666 230.133 394.533 232.4C394.4 234.8 394.266 234.8 393.733 232.933C393.466 231.733 392.4 230.933 391.6 231.466C390.666 231.866 392.133 230.4 394.666 228.133C397.866 225.333 398.8 223.733 397.733 223.066C396.666 222.266 396.666 221.333 398.133 219.466C399.733 217.2 400.266 217.2 402.266 218.8C404.133 220.4 404.4 220.4 403.333 218.8C402.533 217.333 402.8 217.066 404.4 217.733C405.733 218.133 406.666 218 406.666 217.333C406.666 216.533 405.866 216 404.8 216C403.866 216 402.133 214.933 401.2 213.6C399.733 211.733 399.733 211.6 401.333 212.933C402.4 213.866 404.266 214.666 405.6 214.666C406.933 214.666 408 215.466 408.133 216.266C408.133 217.2 408.8 216.533 409.466 214.8C410.4 212.4 410.266 211.2 409.066 210.4C407.733 209.6 407.733 209.333 409.333 209.333C410.8 209.333 410.933 209.066 409.733 208.266C407.733 207.066 408.133 205.066 412.533 192.8C414.4 187.6 415.6 182.933 415.2 182.4C414.8 181.866 415.066 181.333 415.733 181.333C416.933 181.333 418.4 173.333 419.333 162.933C419.6 160.533 420.133 156.933 420.666 154.933C423.2 145.866 423.066 116.666 420.4 88.533C419.466 79.8663 418.933 77.8663 417.333 78.3997Z" fill="#47A537"/>
<path d="M491.734 83.6003C490.4 83.867 489.334 84.8003 489.334 85.467C489.334 86.1336 487.867 86.667 486 86.667C483.6 86.667 482.934 87.2003 483.467 88.667C484 90.0003 483.734 90.4003 482.534 90.0003C481.467 89.6003 479.734 90.667 478.667 92.5336C477.6 94.267 473.2 99.6003 469.067 104.4C458.934 115.734 449.334 128.8 449.334 131.2C449.334 132.267 448.8 133.6 448 134C445.067 135.734 434.134 162.8 432.667 171.734C432.4 173.734 431.467 178 430.667 181.334C429.867 184.667 428.934 189.6 428.534 192.267C428 195.067 427.067 196.934 426.4 196.534C424.8 195.6 425.6 199.067 427.334 200.267C428.134 200.934 428.134 201.334 427.067 201.334C426.267 201.334 425.734 202.8 426 204.667C426.134 206.534 425.867 208 425.467 208C424.934 208 423.467 209.734 422.267 212C420 215.734 420 216.134 422.134 219.6C423.467 221.734 423.734 222.667 422.8 221.734C419.867 219.2 416 222.4 417.467 226.267C418.267 228.534 418 229.6 416 231.067C413.467 232.8 413.467 232.934 416.4 235.334C418 236.8 420 237.867 420.667 237.6C421.467 237.467 420.934 238.134 419.6 239.2C418.134 240.267 417.734 241.467 418.534 241.867C419.2 242.4 420.667 241.734 421.6 240.667C422.534 239.467 424.934 236.934 427.067 235.067C430.667 231.467 432 228.267 429.067 230.267C428.134 230.8 426 231.067 424.4 230.934C421.6 230.534 419.067 232.8 420.667 234.4C421.067 234.8 422 234.4 422.667 233.334C423.734 231.6 424.134 231.6 425.6 233.2C426.667 234.267 426.667 234.667 425.734 234.134C424.934 233.734 424 234 423.734 234.934C423.067 236.8 418.667 235.467 418.667 233.334C418.667 232.534 419.867 230.934 421.334 229.734C422.8 228.4 424 226.667 424 225.734C424 224.8 424.8 224 425.867 224C426.8 224 428.4 223.067 429.334 222C430.267 220.934 431.6 220 432.4 220C433.334 220 433.334 220.534 432.267 221.6C430.4 223.467 430.134 226.667 432 226.667C432.667 226.667 433.6 225.2 434.134 223.334C434.534 221.467 435.467 220 436.134 220C436.8 220 437.334 219.467 437.334 218.667C437.334 218 436.267 217.867 435.067 218.267C433.067 219.067 432.934 218.934 434.667 217.067C435.734 215.867 437.067 215.2 437.6 215.467C438.134 215.867 440.8 213.6 443.467 210.667C446.134 207.734 448.934 205.334 449.6 205.334C451.2 205.334 454.667 201.867 454.667 200.4C454.667 199.867 456.934 196.934 459.6 194C462.267 191.067 464.4 188.4 464.4 188C464.4 187.6 464.8 186 465.467 184.267C466.934 180.267 466.934 179.6 465.334 180.667C464.667 181.067 464 180.4 464 179.2C464 177.867 464.4 177.334 464.934 177.734C466 178.934 472 170.8 472 168C472 166.8 472.534 165.334 473.2 164.534C474.134 163.6 476.934 156.4 478 152C478.134 151.6 479.2 149.067 480.4 146.4C481.734 143.6 482.667 140.934 482.667 140.4C482.667 138.534 489.734 116.534 491.734 112C492.934 109.467 494 103.067 494.134 97.7336C494.4 92.4003 494.8 86.8003 495.334 85.3336C496.134 82.667 495.867 82.5336 491.734 83.6003Z" fill="#47A537"/>
<path d="M278.533 117.2C279.466 117.866 279.866 119.066 279.466 119.866C278.933 120.666 278.933 122 279.466 122.8C280 123.6 280.266 129.6 280.133 136C279.866 145.066 280.266 148.133 281.866 149.733C284.266 152.133 284.666 153.866 282.533 152.533C281.466 152 281.333 152.933 281.866 155.466C283.733 163.866 283.733 165.333 282.533 165.333C281.866 165.333 281.333 164.8 281.333 164.266C281.333 162.533 274.933 162.533 274.266 164.4C274 165.2 273.866 164.8 274.133 163.333C274.4 161.333 273.733 160.533 271.733 160.4C270.266 160.266 268.4 159.6 267.733 158.933C267.066 158.266 263.733 158.133 260.266 158.8C256.8 159.333 251.2 160.133 247.6 160.533C244.133 160.933 240.4 162.133 239.2 163.2C238.133 164.4 236.266 165.333 235.066 165.333C230.4 165.333 236.4 169.2 243.466 170.8C249.866 172.266 251.2 172.133 255.333 170C257.866 168.533 260.4 168 260.933 168.533C261.466 169.2 261.2 170 260.4 170.266C259.466 170.666 258.666 171.466 258.666 172.266C258.666 173.066 259.6 173.333 260.666 172.8C261.733 172.4 262.666 172.666 262.666 173.333C262.666 174 264.266 175.066 266.4 175.466C272.4 177.066 278.666 181.733 277.866 184.266C277.333 185.866 277.866 186.266 280 185.733C282.4 185.066 282.666 185.6 282.666 190.133C282.666 193.066 283.2 198.8 284 203.066C284.666 207.333 285.6 214.533 286 219.066C286.533 223.6 287.333 227.866 287.733 228.666C288.133 229.333 288.666 230.933 288.666 232C289.066 236.8 291.2 242.666 293.466 245.066C294.8 246.533 295.466 248 295.066 248.4C293.733 249.733 300.8 260.4 307.866 267.733C311.6 271.6 314.666 275.733 314.666 276.8C314.666 280.133 318.533 283.333 320.4 281.466C322.266 279.6 324.4 279.466 323.333 281.333C322 283.466 325.6 282.8 328.533 280.4C331.333 278.133 331.333 278.133 328.533 281.333C325.866 284.4 324.533 290 326.8 288.533C327.333 288.266 328 288.666 328.266 289.466C328.533 290.133 329.733 290.4 331.066 290C332.266 289.466 332.933 288.4 332.533 287.733C332 286.933 332.533 285.866 333.466 285.2C334.8 284.4 334.4 284 332 283.866C330.133 283.866 329.466 283.466 330.4 283.066C331.2 282.8 332 281.6 332 280.533C332 279.333 332.533 278.933 333.333 279.333C334.133 279.866 334 278.533 333.066 276.4C331.466 272.266 330.666 249.2 332.4 250.266C334 251.2 333.466 248.666 331.733 246.933C330.533 245.733 330.533 245.333 331.733 245.333C332.8 245.333 332.933 244 332.4 241.066C331.866 238.4 332 237.2 332.933 237.733C334.533 238.666 336.4 231.733 334.933 230.666C334.4 230.266 333.733 228.266 333.6 226.133C333.2 223.333 333.6 222.666 334.933 223.466C336.133 224.133 336.133 223.733 334.666 221.866C330.8 217.066 327.466 208.666 326.666 202.4C326.533 201.866 326 199.466 325.333 197.066C324.4 194.133 324.533 192.266 325.733 190.933C327.066 189.2 326.8 189.066 323.733 189.866C321.466 190.4 320 190.133 320 189.333C320 188.666 320.533 188 321.066 188C321.733 188 322 185.066 321.6 181.333C321.066 174.4 323.466 161.333 325.333 161.333C325.866 161.333 326.133 160.133 325.733 158.666C325.333 157.2 324.533 156.4 323.866 156.8C323.2 157.2 322.666 156.8 322.666 156.133C322.666 155.333 323.333 154.666 324 154.666C324.8 154.666 325.333 154 325.333 153.2C325.333 152.533 324.533 152.266 323.733 152.8C322.533 153.466 322.533 153.2 323.866 151.6C324.8 150.4 326.133 149.733 326.8 150.133C327.466 150.533 327.6 149.866 327.2 148.8C326.666 147.333 327.2 146.666 328.533 146.666C329.733 146.666 330.666 146 330.666 145.2C330.666 144.533 331.333 144.266 332 144.666C332.8 145.066 333.333 144.533 333.333 143.466C333.333 142.266 334.133 141.466 335.066 141.6C335.866 141.866 336.533 141.2 336.266 140.266C336.133 139.466 336.4 138.8 337.066 138.933C339.866 139.866 347.2 129.6 345.6 127.066C344.4 125.066 324.666 132.666 318.8 137.333C315.2 140.266 308.666 148.666 308.666 150.666C308.666 151.066 307.866 153.333 306.8 155.6C304.933 160.266 302.266 161.6 302.8 157.6C302.933 156.4 301.866 152.666 300.4 149.333C298.933 146 296.933 140.933 296 138C294 131.6 288.4 121.6 285.2 118.266C283.866 117.066 281.466 116 279.733 116C277.466 116 277.2 116.4 278.533 117.2Z" fill="#47A537"/>
<path d="M200.534 148.667C195.867 150 195.734 150 198.267 152.4C199.734 153.6 201.2 154.267 201.734 153.867C202.134 153.333 203.467 153.333 204.534 153.733C206.4 154.4 206.267 155.2 203.867 159.333C202.267 161.867 200.4 163.6 199.6 163.067C198.8 162.667 198.667 162.933 199.2 163.867C200.4 165.733 198.934 170.933 197.334 170C196.8 169.6 196.534 170.533 196.934 172C197.334 173.467 196.934 175.6 196 176.667C195.067 177.733 194.667 178.667 195.067 178.667C195.467 178.667 195.2 180.667 194.534 182.933C193.867 185.333 192.934 190 192.534 193.333C191.467 201.067 191.067 203.467 189.467 210.933C188.667 214.4 188 219.467 187.734 222.133C187.467 226.8 185.334 230.267 185.334 226.133C185.334 224.933 184.934 224 184.4 224C183.734 224 183.2 221.733 183.067 219.067C182.934 216.4 182 213.733 181.067 213.067C179.6 212.267 179.6 211.733 181.2 210.8C182.267 210.133 182.4 209.467 181.6 209.2C180.8 208.933 179.867 206.933 179.467 204.933C179.067 202.8 178.134 200.4 177.467 199.467C176.667 198.533 176.4 197.333 176.934 196.933C177.334 196.4 177.067 195.333 176.4 194.4C175.6 193.467 174.267 189.2 173.334 184.933C171.734 177.867 170.4 175.867 168.934 178.267C168.667 178.933 168.667 178.4 169.067 177.333C170.267 173.6 171.467 161.467 170.534 162.133C170 162.4 169.2 160.533 168.8 158C168 153.733 167.6 153.467 165.2 155.067C162.667 156.533 162.534 157.467 163.2 166.267C164.267 177.867 167.867 194.8 171.867 206.267C173.334 210.8 174.667 215.733 174.667 217.067C174.667 218.533 175.6 222.267 176.667 225.467L178.667 231.333L176 228.133C174.534 226.4 173.334 225.6 173.334 226.4C173.334 227.067 172.4 228 171.334 228.533C169.6 229.067 169.467 228.8 170.667 226.667C171.734 224.533 171.734 224 170.134 224C169.2 224 167.867 223.067 167.467 221.867C167.067 220.8 167.2 220.267 168 220.667C170.934 222.4 169.067 218.933 164.667 214.133C162.134 211.333 160.4 208.4 160.8 207.733C161.334 206.933 160.534 206.8 158.534 207.333C155.734 208.267 155.6 208.133 157.067 206.4C158.8 204.267 158 200 155.734 200C155.067 200 154.934 199.333 155.334 198.667C155.734 197.867 154.934 197.333 153.334 197.333C151.734 197.333 150.8 197.867 151.2 198.533C151.734 199.2 151.2 200.133 150.4 200.533C149.067 201.2 149.067 201.467 150.4 202.133C151.2 202.533 152 203.467 152 204C152 205.467 159.734 217.067 161.467 218C164.134 219.733 162.667 222.267 159.2 221.6C157.067 221.2 156.134 220.4 156.534 219.2C156.934 218.133 156.4 217.333 155.334 217.333C154.134 217.333 152.134 216.667 150.667 216C149.2 215.2 146.934 214.133 145.6 213.467C142.4 211.867 127.334 212.933 118.667 215.333C109.6 217.867 89.3337 232.933 89.3337 237.2C89.3337 238 88.5337 238.267 87.7337 238C86.5337 237.6 86.0004 238.667 85.867 241.2C85.7337 243.333 85.2004 246.133 84.667 247.467C82.8004 252 82.4004 253.867 81.7337 261.6C81.3337 265.867 80.5337 269.333 79.7337 269.333C78.9337 269.333 79.2004 270.667 80.267 272.267C82.5337 275.733 84.1337 281.333 82.8004 281.067C80.267 280.8 80.4004 281.733 83.7337 285.467C92.5337 295.6 95.7337 298.4 102.667 301.733C114.4 307.333 117.067 308.133 117.867 306.267C118.267 305.067 118.534 305.067 118.534 306.267C118.667 307.2 119.467 307.6 120.4 307.333C121.867 306.8 130.134 305.467 134.667 305.067C136.534 304.933 143.467 300.8 148.267 296.933C151.467 294.4 153.2 289.2 152.4 284.933C152 282.933 152.4 280.533 153.2 279.467C154.4 278 154.267 277.067 152.667 275.467C149.467 272.4 147.6 272.8 145.6 277.067C143.6 281.733 135.334 286.533 130 286.133C122.534 285.6 114.667 282.667 113.2 279.867C112.4 278.267 112.134 275.2 112.534 272.8C112.934 270.533 113.467 267.6 113.734 266.4C113.867 265.067 115.067 262.933 116.267 261.467C117.467 260 118 258.4 117.6 257.867C117.067 257.333 117.734 257.333 119.067 257.733C120.4 258.267 121.2 258.133 120.667 257.333C118.4 253.6 136.267 252.667 140.934 256.267C141.867 256.933 143.334 257.067 144.267 256.533C145.2 256 144.8 256.8 143.467 258.4C140.667 261.733 141.734 262.4 144.8 259.333C147.334 256.8 149.867 256.667 148.934 259.2C148.4 260.533 148.934 260.8 150.8 260.4C152.134 260 153.334 260.4 153.334 261.2C153.334 262 154.934 262.667 157.067 262.8C160.267 262.8 160.4 262.933 158 264C156.534 264.667 156 265.2 156.934 265.2C157.867 265.333 159.2 266.533 160 268.133C161.2 270.267 161.067 271.333 159.467 273.2C157.067 275.867 156.667 278.667 158.667 278.667C159.467 278.667 160 277.6 160.134 276.267C160.134 274.933 160.534 274.667 160.934 275.6C161.2 276.533 162.134 277.333 162.8 277.333C163.334 277.333 163.6 276.4 163.2 275.333C162.667 274.267 162.8 273.333 163.2 273.333C164.4 273.333 169.334 278.533 169.2 279.6C169.067 280.267 169.2 281.2 169.334 282C169.6 282.667 169.734 284.533 169.867 286C170 287.467 170.8 288.667 171.734 288.667C173.6 288.667 177.6 296.4 176.534 297.867C176.267 298.267 176.4 298.4 176.934 298C177.467 297.6 180.267 302.533 183.334 308.933C186.4 315.467 189.867 321.467 191.067 322.533C192.4 323.467 193.334 325.2 193.334 326.133C193.334 327.2 194 328 194.8 328C195.467 328 195.867 328.533 195.467 329.2C195.067 329.867 195.467 330.667 196.534 331.067C197.6 331.467 198.8 333.733 199.334 336C200 339.067 200.8 340 202.267 339.467C203.734 338.933 204 339.2 203.467 340.667C203.067 341.733 203.2 343.867 203.734 345.467C204.667 348 204.934 348 206.534 346.133C207.6 344.933 209.067 344 209.867 344C210.667 344 210.267 344.667 209.067 345.467C206.134 347.067 206 350.533 208.667 351.467C209.734 352 210.667 353.067 210.667 354.133C210.667 355.2 211.334 356 212.134 356C212.8 356 213.067 355.333 212.534 354.4C211.867 353.467 212.134 353.333 213.2 354C214.4 354.667 214.534 355.333 213.467 356.4C212.534 357.333 213.334 359.067 216.4 362.133C220.534 366.267 224.134 370.667 226.8 374.667C227.867 376.4 228.267 376.4 230 374.133C231.734 371.733 231.867 371.733 231.6 374.4C231.6 375.867 230.934 376.8 230.4 376.533C229.867 376.133 229.334 376.667 229.334 377.733C229.334 380.4 232.667 380 234.534 376.933C235.6 375.467 235.6 374.8 234.8 375.333C233.867 375.733 233.334 374.933 233.334 373.2V370.4L235.734 373.467C237.2 375.067 239.2 376.533 240.4 376.8C242.8 377.067 244.534 373.867 242.667 372.667C241.867 372.133 241.334 372.667 241.334 373.6C241.334 374.933 240.934 374.8 240.134 373.333C239.334 372.267 239.2 370.933 239.467 370.4C239.867 369.733 239.467 369.467 238.4 369.6C237.467 369.867 236.8 369.2 237.067 368.267C237.334 367.067 236.534 366.8 234.667 367.333C232.534 368 232.134 367.733 232.934 365.867C233.467 364.267 233.334 363.867 232.267 364.533C230.534 365.6 230.667 360.8 232.4 359.2C232.934 358.667 232.134 357.333 230.667 356.4C228.4 354.8 227.467 354.8 226 356C224.4 357.333 224 357.2 224 355.467C224 354.267 222.934 353.333 221.734 353.2C220.134 353.2 220 352.933 221.067 352.4C222 352 223.6 352.533 224.667 353.333C226.267 354.667 226.667 354.533 226.667 352.8C226.667 351.467 227.334 350.933 228 351.333C228.8 351.733 229.334 351.467 229.334 350.667C229.334 349.867 227.867 349.6 225.734 350.133C222.134 350.933 222 350.933 224.667 348.667C226.134 347.467 226.667 346.8 225.734 347.2C224.934 347.733 223.867 347.467 223.334 346.667C222.934 346 223.2 345.333 224.134 345.333C225.067 345.333 225.467 344.933 225.067 344.533C224.534 344.133 222.934 344.533 221.334 345.333C219.2 346.533 218.8 347.2 220 348C221.067 348.667 221.067 349.333 220.267 349.867C219.6 350.267 218.534 349.6 218 348.4C217.6 347.067 217.867 345.867 218.667 345.6C219.6 345.2 219.467 344 218 341.867C215.867 338.533 216.934 337.467 219.734 340.267C220.667 341.2 221.334 341.467 221.334 340.8C221.334 338.933 217.334 335.867 216 336.667C215.334 337.067 214.667 336.533 214.667 335.333C214.667 334.133 214.134 333.467 213.6 333.867C213.067 334.133 212.534 331.6 212.4 328C212.4 323.067 213.067 320.667 215.2 318.4C218.134 315.333 218.267 310.133 215.6 306.8C214.4 305.333 214.4 305.067 215.6 305.733C216.8 306.533 216.667 305.467 215.334 302.267C213.867 298.8 213.867 297.333 215.067 296.133C216.267 294.8 216.267 294.667 214.534 295.333C212.8 296 212.534 295.2 212.934 291.067C213.2 288.267 213.6 280 213.867 272.667C214.134 265.333 214.4 258.4 214.534 257.2C214.667 254.533 219.067 249.333 221.2 249.333C222 249.333 222.667 248.133 222.667 246.667C222.667 245.2 223.6 244 224.667 244C225.734 244 226.267 243.2 225.867 242.267C225.067 240.133 227.734 237.733 230.667 237.6C231.734 237.6 235.467 237.2 238.934 236.667C247.467 235.6 252.934 238.4 254.134 244.533C255.2 250.933 252.534 258.4 246.8 264.267C244.134 266.933 240.134 271.333 237.734 273.867C233.867 278.4 233.734 278.667 236.4 278.667C238 278.667 240.134 279.2 241.2 279.867C242.534 280.667 244.534 280.4 246.8 279.2C248.934 278.133 252.267 277.333 254.267 277.333C256.4 277.333 259.467 276.4 261.067 275.2C262.667 274.133 264.667 273.6 265.334 274C266.134 274.4 267.2 273.333 268 271.467C268.667 269.6 269.867 268 270.534 268C271.2 268 272.134 266.933 272.534 265.6C273.067 264.267 274.534 261.867 275.867 260.4C277.867 258.4 278.534 255.2 278.8 246.533C279.067 240.4 279.867 234.533 280.667 233.467C281.734 232 281.334 231.733 278.667 232.533C276.534 233.2 276 233.067 277.067 232.267C279.734 230.533 277.6 219.867 274.534 219.067C273.2 218.667 272.4 217.867 272.8 217.2C273.2 216.533 272.8 216 272 216C271.2 216 270.934 215.333 271.334 214.667C271.734 213.867 271.467 213.333 270.534 213.333C269.734 213.333 266.8 210.933 264 208C260.667 204.533 256.667 201.867 252 200.4L245.2 198.133L241.734 202.133C238.8 205.6 238.534 205.067 240.8 199.467C241.467 197.867 240.267 197.6 234.8 198.133C231.067 198.4 226.4 199.333 224.534 200C222.534 200.8 220.667 201.067 220.267 200.8C220 200.4 218 201.2 216 202.667C213.867 204.133 211.867 205.333 211.334 205.333C210.267 205.333 198.534 214.667 197.067 216.667C195.734 218.267 196.534 210.4 197.734 208.4C198.267 207.467 198.134 206.4 197.334 206C196.4 205.467 196.267 204.533 197.067 203.6C198.8 201.467 200.267 194.133 200.667 186.533C201.067 178.267 204 166.667 205.6 166.667C206.267 166.667 206.667 165.6 206.4 164.267C205.867 160.933 209.334 154.667 211.6 154.667C212.667 154.667 214.534 156.4 215.734 158.533C218.134 162.8 222.4 164.8 224.534 162.667C226.8 160.4 226.8 156 224.667 156C223.6 156 222.667 155.467 222.667 154.8C222.667 152.4 214.534 147.733 209.867 147.467C207.334 147.333 203.2 147.867 200.534 148.667Z" fill="#47A537"/>
<path d="M114.4 175.467C113.334 179.067 112.934 182.667 113.6 183.467C114.134 184.267 114.267 185.333 113.734 185.733C113.334 186.267 113.6 186.667 114.534 186.667C115.6 186.667 116 187.467 115.467 188.933C114.8 190.4 115.6 192 117.467 193.467C120.134 195.467 120.8 195.467 123.467 193.733L126.4 191.867L123.2 188.4C120.267 185.2 120.134 184.667 122 182.8C123.6 181.2 124.267 181.067 125.6 182.533C127.067 183.867 126.8 184 124.8 183.2C122.934 182.533 122.534 182.8 122.934 184.133C123.334 185.2 124.4 185.867 125.2 185.6C126 185.467 126.667 185.867 126.667 186.533C126.667 187.2 127.6 188.133 128.8 188.533C130 188.933 130.4 188.8 129.867 187.867C128.667 185.733 136.267 190.133 138.934 192.933C140.134 194.267 142.534 196.667 144.4 198.4L147.867 201.467L149.334 198.533C150.667 196.133 150.4 195.2 146.4 191.867C144 189.867 141.467 188.133 140.8 188C140.134 188 140.534 186.933 141.467 185.733C142.8 184.133 142.8 183.733 141.6 184.533C139.867 185.6 136.134 184.267 125.734 179.2C122.534 177.6 119.6 176.8 119.2 177.467C118.8 178.133 117.867 178.667 117.067 178.667C116.134 178.667 116.134 178.133 117.2 176.933C118 175.867 118.267 174.667 117.734 174.133C117.2 173.6 118.267 173.733 120.267 174.533C123.6 175.733 123.734 175.733 122.8 173.067C121.6 169.733 118.667 168.267 118.667 170.933C118.667 172.267 118.4 172.267 117.467 170.8C116.534 169.467 115.734 170.8 114.4 175.467Z" fill="#47A537"/>
<path d="M532.267 225.067C531.333 225.734 530.4 227.334 530.133 228.8C529.867 230.134 528.933 233.067 528.133 235.067C526.267 239.867 526.267 240.4 528.4 239.334C529.2 238.934 528.667 239.6 527.067 240.8C524 243.067 522.667 246.267 525.6 244.534C526.533 244 526.667 244.134 526.133 245.067C525.6 245.867 524.267 246.134 523.067 245.734C521.6 245.2 521.2 245.467 521.6 246.8C522 247.867 521.733 249.867 520.933 251.334C518.533 256.134 506.267 272 505.067 272C504.4 272 504.133 272.534 504.533 273.067C505.6 274.934 487.733 294.8 483.6 296.4C482.267 296.934 480.933 298.4 480.4 299.6C480 300.934 477.467 304.267 474.8 307.067C471.333 310.8 470.667 311.867 472.667 311.334C474.667 310.667 474.933 310.8 473.467 311.734C472.4 312.534 470.8 312.8 469.733 312.4C468.8 312 468 312.4 468 313.334C468 314.267 467.067 314.667 466 314.134C464.8 313.734 463.2 314.667 461.867 316.667C460.667 318.534 459.2 319.734 458.667 319.334C457.067 318.267 442 327.467 431.333 336C418.667 346 408.267 353.334 406.667 353.334C405.867 353.334 405.333 353.867 405.333 354.667C405.333 355.334 403.867 356 402 356C400.133 356 398.667 356.534 398.667 357.334C398.667 358 397.333 358.667 395.733 358.8C392.8 358.934 392.8 358.934 396 359.867C399.067 360.667 399.067 360.934 396.667 361.467C393.2 362.4 390.4 361.467 391.6 359.6C392.133 358.8 391.6 358.534 390.4 359.067C389.2 359.467 387.867 359.467 387.333 358.934C386.267 357.867 376.133 357.6 376.4 358.667C376.8 360.267 374.4 365.334 373.2 365.334C371.467 365.334 371.733 362.934 373.733 362.267C374.8 361.734 374.667 361.467 373.333 361.467C372.267 361.467 370.4 362 369.333 362.8C367.733 364 367.6 364.4 369.2 364.934C370.133 365.334 372 366.8 373.067 368.134C375.467 370.8 378.667 371.467 378.667 369.334C378.667 368.534 377.733 368 376.4 368C374.4 368 374.4 367.734 376.533 365.467C377.867 364 378.533 362.267 378.133 361.6C377.333 360.134 386.267 360.4 389.733 361.867C390.933 362.534 392 363.467 392 364.134C392 364.8 390.267 364.534 388.267 363.467L384.4 361.467L385.733 365.734C387.067 370 387.2 370.134 395.2 370C399.733 369.867 404 370.4 404.933 370.934C407.867 373.2 408.533 368.934 405.467 366.534C403.733 365.067 403.2 363.867 404 363.334C404.933 362.8 404.4 361.467 402.533 359.867C400.933 358.534 400.267 357.334 401.067 357.334C401.867 357.334 402.933 358 403.333 358.8C404 359.734 404.933 359.6 406.4 358.267C410.8 354.534 411.467 354.8 411.067 360.134C410.933 363.867 411.333 365.334 412.8 365.334C413.733 365.334 414.667 365.867 414.667 366.4C414.667 368.534 411.067 367.6 409.467 365.067C408.667 363.734 408.533 362.667 409.333 362.667C410 362.667 410.267 361.734 409.867 360.667C409.333 359.6 408.4 358.667 407.6 358.667C406.8 358.667 406.667 359.067 407.067 359.6C407.6 360 407.333 361.2 406.533 362.134C404.133 364.934 409.2 370.267 415.333 371.467C418.267 372 427.6 372.534 436 372.667C444.4 372.934 451.6 373.2 452 373.334C452.4 373.467 456.533 373.734 461.2 374C465.867 374.267 472.533 374.8 475.867 375.334C479.2 375.867 483.333 376.534 484.933 376.667C497.067 378.267 505.067 380 518.933 384.267C527.2 386.8 528 386.934 530 384.8C532.667 382.134 532.533 382.134 537.6 384.8C540.933 386.534 541.867 386.667 542.8 385.067C543.733 383.734 544 383.734 544 385.067C544 386 542.533 387.467 540.667 388.267C536.267 390.267 536.533 391.6 541.733 393.2C554 397.067 560.667 400 560.267 401.6C559.867 402.934 560.133 402.934 561.467 401.734C562.667 400.534 563.733 400.667 565.867 402.134C567.467 403.067 571.067 404.134 573.733 404.267C576.533 404.534 578.667 405.334 578.667 406.267C578.667 407.2 579.2 408 579.733 408C580.4 408 582.4 409.2 584.133 410.8C585.867 412.267 588.667 414.667 590.4 416.134C592 417.467 594.267 418.667 595.333 418.667C596.4 418.667 598.533 419.467 600 420.267C602 421.6 602.933 421.6 604.133 420.4C605.333 419.2 604.933 417.467 602.267 413.067C598.4 406.4 584.933 391.734 579.733 388.267C577.733 386.934 572.533 382.667 568.133 378.667C557.867 369.2 556 367.734 556 368.8C556 369.334 554.933 368.8 553.733 367.6C551.6 365.734 547.2 363.867 535.067 359.6C532.667 358.667 530.667 357.467 530.667 356.8C530.667 356.267 531.6 356 532.667 356.4C533.733 356.934 534.933 356.8 535.2 356.134C536 354.934 544.667 355.467 546.933 356.8C547.867 357.334 548 357.2 547.467 356.267C546.933 355.334 547.067 354.667 547.867 354.667C548.533 354.667 549.333 355.467 549.733 356.267C550.133 357.467 551.067 357.2 553.2 355.467C555.333 353.6 555.867 353.334 555.333 354.8C554.533 356.934 555.067 357.067 561.6 357.734C563.467 357.867 565.467 358.4 566 358.934C566.533 359.334 568.667 359.2 570.8 358.667C573.2 358 574.4 358 574 358.8C573.333 359.867 577.067 360.667 580.4 360.134C580.933 360.134 581.333 360.8 581.333 361.867C581.333 362.8 584 364.4 587.333 365.334C590.667 366.267 593.333 367.6 593.333 368.134C593.333 368.8 595.2 369.334 597.333 369.334C601.733 369.334 602.8 367.067 599.067 365.734C597.733 365.334 595.2 363.6 593.333 361.867C591.467 360.267 586.533 357.867 582.4 356.667C578.133 355.467 574.4 354 574.133 353.6C573.867 353.067 569.733 352.4 565.2 352.267C560.667 352.134 556.267 351.467 555.467 350.8C553.6 349.2 554.8 349.334 535.867 349.334C525.6 349.334 520.133 348.8 520.667 348C521.067 347.2 522.8 346.667 524.4 346.667C526.133 346.667 528.533 345.867 530 344.8C531.467 343.867 533.067 342.934 533.733 342.8C534.267 342.8 534.8 342.667 535.067 342.534C535.2 342.534 537.733 342.267 540.667 342C543.6 341.6 547.2 340.8 548.667 340.134C552.8 338.267 556.4 336.934 559.333 336.534C563.333 335.734 572 331.467 572 330.134C572 329.6 572.933 329.334 574 329.734C575.067 330.267 576.267 330 576.8 329.2C577.2 328.4 578.4 328.134 579.467 328.534C581.067 329.2 581.867 327.867 581.467 325.067C581.467 324.534 582.8 324.667 584.667 325.334C588 326.667 589.467 324.934 586.4 323.467C585.467 323.067 586.267 322.8 588.267 323.067C590.8 323.467 591.6 323.067 591.067 321.734C590.667 320.667 591.333 320 593.067 320C594.667 320 596.133 319.467 596.533 318.8C596.933 318.134 599.333 318.134 601.867 318.667C607.467 319.867 613.333 318.934 613.333 316.8C613.333 314.134 609.2 309.2 607.733 310.134C607.067 310.667 596.267 311.067 584 311.2C569.333 311.334 561.067 311.867 559.867 312.934C558.8 313.734 555.733 314.8 552.933 315.2C550.133 315.6 546.667 316.534 545.467 317.334C544.133 318 542.667 318.134 542.133 317.734C541.733 317.334 541.333 317.6 541.333 318.534C541.333 319.467 540.8 319.867 540.133 319.467C538.667 318.534 530.267 321.334 529.067 323.2C527.333 325.734 527.867 326.267 531.333 325.6C533.2 325.334 534.667 324.267 534.667 323.2C534.667 322.134 535.467 321.734 536.933 322.267C540.4 323.6 544 327.067 544 328.934C544 331.6 541.6 330.934 540.667 328C539.6 324.8 538.267 324.667 535.467 327.334C534.133 328.8 533.2 328.934 532.533 327.867C531.867 326.8 530.8 327.334 529.333 329.334C528 331.067 525.733 332.667 524.133 332.934C521.333 333.334 520.267 331.467 522.533 330.134C523.2 329.734 523.467 328.267 523.067 326.8C522.667 325.067 523.333 324.134 525.467 323.6C527.2 323.067 528.133 322.4 527.733 322C527.333 321.467 525.733 321.734 524.4 322.4C523.067 323.2 520.267 324 518 324.4C511.067 325.6 505.333 328.134 505.333 330.134C505.333 331.2 506 332 506.667 332C507.467 332 508 331.467 508 330.934C508 329.334 517.067 329.067 518 330.667C519.467 333.067 515.733 336.267 512.4 335.6C510.4 335.2 509.333 335.734 509.333 336.8C509.333 337.867 508.133 338.667 506.667 338.667C505.2 338.667 504 337.867 504 336.8C504 335.867 503.067 334.267 502 333.334C500.933 332.4 500.267 331.2 500.667 330.667C501.067 330.134 500.267 329.734 498.933 329.867C497.733 329.867 496.667 329.067 496.667 328C496.667 326.534 497.867 326.134 500.8 326.4C503.2 326.667 505.867 326 506.8 325.067C507.867 324.134 510.133 323.067 511.867 322.934C516 322.267 520.667 318.934 522.8 315.067C523.733 313.467 524.933 312.4 525.467 312.8C526 313.067 526.8 312.8 527.333 312C527.733 311.334 529.2 310.667 530.4 310.667C531.733 310.667 533.467 309.467 534.4 308C535.333 306.534 536.933 305.334 538.133 305.334C539.467 305.334 540 304.667 539.467 303.2C539.067 302 539.2 301.6 540 302C541.467 302.934 564 280.934 564 278.667C564 278 564.933 277.734 566 278.134C567.467 278.8 567.733 278.4 567.067 276.534C566.4 274.8 566.667 274.534 568 275.334C569.067 276 569.467 275.867 568.8 274.934C568.4 274.134 568.533 272 569.333 270.134C571.067 265.467 568.933 265.734 566.533 270.267C565.6 272.4 562.267 276.4 559.2 279.334C546.667 291.334 541.467 296 540.133 296C539.333 296 538.667 296.667 538.667 297.334C538.667 298.134 538.133 298.534 537.6 298.4C536.933 298.134 534.933 299.067 533.2 300.267C522.533 308 516 311.867 516 310.667C516 310 516.533 309.334 517.2 309.334C517.867 309.334 518.8 308.134 519.333 306.8C519.733 305.334 521.6 302 523.467 299.2C528.667 291.6 535.2 272.8 536.8 260.667C537.2 257.734 537.867 253.467 538.4 251.334C539.867 245.334 538.267 229.467 536.133 228.134C535.2 227.467 534.8 226.267 535.2 225.467C536.267 223.734 534.8 223.6 532.267 225.067Z" fill="#47A537"/>
<path d="M456.4 406.667C454 407.2 452 407.333 452 407.067C452 406.8 451.066 407.467 449.866 408.533C448.8 409.733 446.666 410.667 445.2 410.667C443.866 410.667 442.666 411.2 442.666 412C442.666 412.667 442 413.333 441.333 413.333C439.066 413.333 431.066 422 430 425.467C429.466 427.2 428.533 428.933 427.866 429.333C426.266 430.4 425.466 444 426.8 448.8C427.866 452.667 431.466 455.733 433.066 454C433.466 453.733 433.866 450.933 434 448C434.133 444.933 435.466 440.533 436.8 438C439.333 433.2 447.066 428.8 451.466 429.467C452.8 429.733 454.8 429.467 455.733 428.933C456.533 428.267 457.333 428.4 457.333 429.2C457.333 430.133 458.4 430.133 460.666 429.333C463.066 428.4 464 428.533 464 429.6C464 430.4 464.4 430.8 464.8 430.267C465.333 429.867 467.6 430.933 470 432.8C474.8 436.4 477.333 441.867 477.333 448.8C477.333 451.2 478 453.6 478.666 454C479.6 454.533 478.933 456 477.066 457.867C475.333 459.6 472.4 463.067 470.4 465.6C467.6 469.2 465.2 470.8 460 472C445.733 475.467 425.866 472.533 408.266 464.533C404.4 462.8 401.066 461.333 400.8 461.333C400.533 461.333 398 460.267 395.2 459.067C392.266 457.867 389.733 456.8 389.333 456.667C388.933 456.667 387.2 455.733 385.333 454.667C383.466 453.733 381.733 452.933 381.333 452.933C380.933 452.933 379.2 452.533 377.466 451.867C375.6 451.067 373.733 451.067 372.8 451.867C371.733 452.667 370.533 452.667 369.333 451.733C367.733 450.667 367.733 450.533 369.733 451.2C371.066 451.6 371.733 451.467 371.333 450.8C370.933 450.133 371.2 449.2 372 448.667C372.666 448.267 373.333 446.667 373.333 445.333C373.333 443.467 372.666 442.933 371.066 443.6C369.6 444.133 369.2 444 369.866 442.933C370.4 442 370.133 441.333 369.466 441.333C367.333 441.333 367.733 445.067 370 446.267C371.733 447.2 371.333 448 368.133 450.4C365.333 452.4 363.866 452.8 363.2 451.733C362.666 450.8 362.8 450.667 363.733 451.2C364.666 451.733 365.333 451.467 365.333 450.667C365.333 449.6 364 449.333 361.733 449.867C359.6 450.267 358.8 450.267 359.733 449.867C360.533 449.467 361.333 448.267 361.333 447.2C361.333 446 361.866 445.467 362.533 446C363.2 446.4 364.133 446.267 364.533 445.6C365.333 444.267 358.533 444.4 356.266 445.867C355.333 446.4 354.666 446 354.666 444.667C354.666 442.933 354.4 442.8 352.8 444.267C351.733 445.2 351.333 446.533 351.6 447.2C352 447.867 351.6 448 350.533 447.733C349.466 447.333 348.933 446 349.066 444.667C349.466 442.533 349.2 442.4 347.466 443.867C346.266 444.8 345.733 446.267 346.133 447.2C346.533 448 345.466 447.2 343.866 445.333C341.733 443.067 341.2 442.667 341.733 444.4C342.533 446.533 342.4 446.667 339.866 444.8C338.266 443.733 336.266 443.2 335.333 443.467C334.4 443.867 331.866 443.333 329.733 442.133C327.333 440.933 325.2 440.667 324 441.333C322.8 442 321.333 441.867 320 440.933C318.933 440.133 318.4 439.867 318.933 440.533C319.466 441.067 319.066 442.4 318.266 443.333C317.066 444.667 316.133 444.667 314.666 443.467C312.933 442.133 312.933 442.267 314.533 444.4C316.266 446.533 316.266 447.067 314.666 448C313.6 448.667 313.2 449.6 313.733 450.133C314.133 450.667 315.466 450.267 316.666 449.333C317.733 448.4 318.666 448.267 318.666 449.067C318.666 449.733 317.733 450.8 316.533 451.2C315.466 451.6 314.8 452.533 315.2 453.2C315.6 453.867 315.066 454.667 314 455.2C312.933 455.6 311.733 455.2 311.2 454.4C310.666 453.467 310.8 453.333 311.733 453.867C314 455.333 313.733 452.667 311.333 450.667C310.266 449.733 309.333 448.267 309.333 447.2C309.333 446.267 308.666 445.067 307.733 444.533C306.666 443.867 306.533 444.4 307.066 446.133C307.866 448.4 307.866 448.4 306.4 446.533C305.466 445.333 303.866 444.667 302.933 445.067C301.6 445.467 301.6 446 302.933 447.6C304.266 449.2 304.133 450 302.133 451.467C299.866 453.067 300.266 453.467 306.533 456.533C310.666 458.533 313.333 459.2 313.333 458.267C313.466 457.333 314 457.467 315.066 458.667C316.8 460.8 322.666 460.667 322.666 458.533C322.666 457.867 323.066 457.467 323.733 457.467C324.266 457.6 324.933 457.6 325.333 457.333C328.133 456.4 333.333 456.4 333.333 457.467C333.333 458.267 335.6 458.533 339.333 457.867C344 457.2 345.333 457.467 345.333 458.8C345.466 460.133 345.866 460.133 347.066 458.533C348.533 456.533 350.933 458.533 367.333 474.933C378.933 486.4 390.133 496.267 396.933 500.667C402.933 504.667 408.533 509.067 409.2 510.533C410 512 411.466 513.867 412.266 514.933C415.6 518.4 418.666 526.4 416.933 527.2C416 527.467 416.533 527.867 417.866 527.867C419.333 528 420.133 528.4 419.6 528.8C419.2 529.2 419.466 531.333 420.266 533.6C421.466 536.8 422.266 537.467 424.933 536.933C427.866 536.4 428 536.533 426.133 539.2C425.066 540.667 423.6 541.867 422.933 541.733C422.266 541.6 422 544.267 422.4 548C422.933 553.467 422.4 555.467 419.2 560.533C417.066 563.867 414.266 566.933 412.933 567.333C411.733 567.867 410.933 568.667 411.333 569.333C412.533 571.333 408 572 404.266 570.4C400.933 568.933 392.133 562.667 388.533 559.333C387.733 558.533 386.533 556.533 386.133 554.933C385.6 553.333 384.666 552 384.266 552C382.8 552 383.466 543.867 385.2 539.6C386 537.467 387.066 533.467 387.466 530.533C388.266 525.867 388.133 525.333 385.866 526.267C384.533 526.8 382 528.933 380.266 530.933C378.533 532.933 376.266 534.667 375.333 534.667C374.4 534.667 372.266 538.4 370.666 542.8C368.133 549.467 367.866 551.733 368.933 554.8C370 557.6 370 558.933 368.8 560C367.866 560.667 366.533 560.8 366 560.267C365.333 559.733 365.333 560.133 365.866 561.067C366.4 562 365.866 564.4 364.666 566.4C363.333 568.4 363.066 569.333 364 568.4C365.466 567.067 366.133 567.2 367.466 569.067C369.066 571.067 369.2 571.067 369.333 569.2C369.333 568 370.266 566.267 371.333 565.333C373.333 563.6 374 564.933 373.6 570.533C373.6 571.6 374.266 574 375.066 575.867C376.666 579.733 376.933 580.667 377.2 582.667C377.2 583.333 378.4 584 379.733 584C381.6 584 381.733 583.733 380 582.667C378.266 581.6 378.266 581.333 379.866 581.333C381.2 581.333 380.933 580.4 378.8 578.533C376.8 576.667 376 574.8 376.533 572.933C376.933 571.467 376.666 569.067 375.866 567.733C375.066 566.4 375.066 565.333 375.733 565.333C378.266 565.333 380.4 569.6 380.266 574C380.133 576.4 380.933 579.2 382 580C384.4 582 384.533 584.8 382.4 585.867C381.466 586.4 382 586.4 383.6 586.133C385.2 585.867 387.733 586.533 389.2 587.6C390.8 588.667 392 588.933 392 588.133C392 587.467 391.466 586.4 390.666 586C390 585.6 389.333 584.4 389.333 583.6C389.333 582.667 389.866 582.8 390.666 584C391.733 585.6 392.133 585.6 394.4 583.6C398 580.4 399.333 580.8 396.133 584.133C393.466 587.067 393.466 587.067 397.066 591.467C399.066 594 401.733 596 402.933 596C404.266 596 405.2 595.6 404.933 594.933C404.8 594.4 405.333 593.867 406 593.733C406.8 593.733 407.2 594.133 406.933 594.933C406.8 595.6 407.866 595.867 409.466 595.333C411.2 594.667 412 594.933 411.466 595.733C411.066 596.4 411.6 597.467 412.666 597.867C414.266 598.4 414.4 599.2 413.333 601.2C411.733 604.4 411.6 608 413.2 608C414.8 608 415.866 599.6 414.533 597.867C413.733 596.8 414 596 415.466 595.467C418.4 594.267 418.933 594.4 417.866 596.267C417.2 597.2 417.466 597.333 418.666 596.667C419.6 596.133 422.133 595.6 424.266 595.733C426.533 595.733 428.4 595.067 428.933 593.867C429.333 592.8 430.266 592 431.066 592C432.133 592 432.133 592.4 431.066 593.467C430.133 594.4 430.133 595.733 431.2 598.133C432.933 601.867 434.666 602.4 433.733 598.8C433.333 597.467 433.866 595.867 434.8 595.2C436 594.533 436.266 594.933 435.6 596.4C435.2 597.733 435.333 598.667 435.866 598.667C436.533 598.667 437.333 598 437.6 597.067C438.266 595.067 441.333 596.933 441.333 599.467C441.333 600.533 440.8 601.067 440 600.667C439.2 600.133 439.066 600.8 439.6 602.267C440.4 604.133 440.8 604 442.133 600.667C443.066 598.4 443.866 595.6 444 594.267C444 593.067 444.533 592 445.2 592C445.733 592 446.133 593.867 445.866 596.267C445.333 600.4 445.333 600.4 447.866 597.867C449.6 596 450 594.533 449.2 592.267C448.4 590.133 448.533 589.333 449.866 589.333C452 589.333 462.666 574 462.533 571.333C462.4 570.933 462.8 568.267 463.333 565.333C464.533 558.267 464.533 538.533 463.333 535.733C461.466 531.067 463.6 530.133 466 534.667C467.466 537.2 468.533 539.733 468.666 540.267C468.666 540.667 469.066 541.6 469.733 542.133C470.266 542.667 470.666 544.267 470.666 545.6C470.666 546.933 471.2 548 471.866 548C472.933 548 474.8 551.733 475.333 554.667C475.333 555.067 476.133 556.533 476.933 558C477.6 559.467 479.066 564 480 568C480.933 572 482.4 577.2 483.333 579.6C484.933 583.2 484.8 583.867 483.066 584.667C481.866 585.067 480.266 584.8 479.6 584.133C478.133 582.667 474.666 583.6 474.666 585.467C474.666 586.133 475.866 586.667 477.466 586.667C479.466 586.667 480 587.333 479.466 588.667C477.2 594.533 492.533 593.067 497.466 586.933L500.133 583.467L497.333 582.4C495.733 581.867 493.066 581.733 491.333 582.133C487.733 583.067 486.8 581.867 486 575.067C485.333 570.533 484.666 566 483.466 560C482.8 556.533 480.266 550.933 476.933 545.733C473.466 540.4 473.333 539.867 473.333 536.533C473.333 535.467 470.933 532.133 468 529.2C463.2 524.4 460.666 520 463.866 522C464.533 522.4 465.466 521.6 465.733 520.4C466.266 518.533 466.4 518.667 466.533 520.933C466.666 523.6 470.666 527.333 478 531.6C479.466 532.4 480.533 533.733 480.4 534.533C480.133 535.333 480.933 535.6 481.866 535.2C483.066 534.8 485.733 536.667 488.666 539.867C491.333 542.8 494.8 545.6 496.4 546.133C498 546.667 499.6 547.333 500 547.867C500.4 548.267 502 549.733 503.6 551.067C507.466 554.4 510.4 552.667 507.066 548.933C505.733 547.467 505.466 546.667 506.4 547.2C507.2 547.733 508 547.6 508 546.933C508 546.133 507.066 545.333 506 544.8C504.8 544.4 504.4 543.2 504.8 541.733C505.466 539.467 505.466 539.467 504 541.733C502.533 544 502.133 543.867 498 539.733C492.666 534.4 489.6 532 479.733 525.6C472.533 520.933 467.866 515.867 473.066 518.533C478 521.067 484.8 523.067 488 522.933C489.866 522.933 491.6 523.467 492 524C492.4 524.667 497.2 525.467 502.533 526C508 526.533 513.733 527.2 515.2 527.6C516.8 527.867 518.933 528.267 520 528.4C521.066 528.533 522.4 529.2 522.8 529.733C524.133 531.733 530.8 524.533 529.866 522.133C529.466 520.933 529.733 520 530.533 520C531.333 520 532 521.467 532 523.333C532 525.2 531.466 526.667 530.666 526.667C528.8 526.667 529.066 530.4 531.066 531.067C532.266 531.467 532.266 532 530.8 533.733C528.4 536.8 530.666 536.533 534.4 533.333C537.066 531.2 537.333 530 536.666 524.8C536.266 520.8 536.533 518.667 537.466 518.667C538.266 518.667 536.8 516.533 534.133 513.867C531.2 510.933 528.533 509.333 527.333 509.867C525.066 510.667 524.666 512.8 526.666 514C527.466 514.4 528 515.467 528 516.133C528 516.933 527.333 517.067 526.4 516.533C525.466 516 525.333 516.133 525.866 517.067C526.533 518.267 527.6 518.267 529.466 517.2C530.933 516.533 532.8 516.133 533.733 516.4C537.333 517.733 525.6 520.8 518.266 520.533C508.133 520.133 495.866 518.8 494.666 518C494.133 517.6 491.333 517.067 488.533 516.667C485.6 516.4 478.8 513.867 473.333 511.067C467.866 508.267 462.8 506 462.133 506C461.466 506 460.666 505.2 460.4 504.267C459.733 502.533 460.133 502.4 470 501.867C473.733 501.733 476.666 501.467 476.666 501.333C476.666 501.2 478.133 500.933 479.866 500.533C481.6 500.267 485.066 498.667 487.6 497.2C490.133 495.6 492.4 494.667 492.8 494.933C494.133 496.267 502.666 486.667 505.066 481.2C508.266 474 512 456.533 512 448.933C512 445.867 511.333 440.933 510.533 438C509.733 435.067 509.066 431.867 509.066 430.933C508.933 430.133 508.533 429.333 508.133 429.333C507.6 429.333 506.133 427.2 504.8 424.667C502.933 421.333 501.866 420.4 501.066 421.6C500.4 422.8 500 422.267 500 420.133C500 418 499.466 417.333 498.133 417.733C497.066 418.133 496 417.467 495.6 415.867C495.2 414.4 494.4 413.333 493.733 413.467C492.533 413.867 485.066 410.533 484 409.2C483.6 408.667 480.8 408 477.6 407.467C474.4 407.067 471.2 406.4 470.533 405.867C469.733 405.467 468.8 406.267 468.4 407.867C467.466 411.333 465.733 411.467 462.933 408.133C461.2 406.267 459.733 405.867 456.4 406.667Z" fill="#47A537"/>
<path d="M326.201 291.873C325.001 293.206 325.001 293.873 326.067 293.873C326.867 293.873 327.534 293.206 327.534 292.54C327.534 291.74 328.201 291.206 328.867 291.206C329.667 291.206 330.201 292.006 330.201 293.073C330.201 294.14 331.001 295.206 331.934 295.606C332.867 295.873 333.001 296.673 332.334 297.34C331.667 298.006 330.867 297.873 330.601 296.806C330.201 296.006 329.001 295.206 327.934 295.206C326.067 295.206 326.067 295.473 328.067 297.74C329.934 299.74 329.934 300.406 328.467 301.606C327.401 302.54 326.201 302.673 325.534 302.14C325.001 301.606 324.867 302.94 325.134 304.94C325.667 307.473 325.267 308.94 323.934 309.473C322.867 309.873 322.467 311.206 322.867 312.673C323.401 314.14 323.134 315.206 322.201 315.206C321.401 315.206 321.934 316.54 323.401 318.14C325.534 320.273 325.801 321.473 324.601 322.806C322.467 325.34 322.201 333.74 324.334 332.94C325.134 332.673 325.667 331.206 325.267 329.873C324.867 328.273 325.934 325.606 328.067 323.073C332.201 318.14 332.334 317.873 328.867 314.14C326.601 311.74 326.467 311.206 328.201 311.206C329.267 311.206 330.201 311.74 330.201 312.54C330.201 313.206 331.134 313.873 332.201 313.873C333.667 313.873 334.201 312.406 334.201 308.54C334.201 305.606 333.667 303.206 333.134 303.206C332.601 303.206 332.334 305.473 332.467 308.14C332.867 312.273 332.734 312.806 331.534 310.806C330.734 309.606 330.467 307.873 331.001 306.94C331.667 305.873 331.267 305.74 329.801 306.273C327.001 307.34 327.001 306.54 329.801 303.34C331.001 301.873 332.601 301.073 333.401 301.473C334.201 301.873 334.467 301.873 333.934 301.206C333.401 300.673 333.534 299.073 334.334 297.74C335.267 296.006 335.134 295.206 334.201 295.206C333.401 295.206 333.001 294.673 333.534 294.006C333.934 293.206 333.134 292.006 331.667 291.34C328.334 289.473 328.201 289.473 326.201 291.873ZM329.667 318.94C328.867 319.606 324.867 315.873 324.867 314.406C324.867 313.873 326.067 314.54 327.534 315.873C329.001 317.206 329.934 318.54 329.667 318.94Z" fill="#47A537"/>
<path d="M318.068 328.14C317.934 329.473 317.934 331.607 318.068 332.807C318.201 334.14 317.668 335.207 317.001 335.207C316.201 335.207 315.534 335.873 315.534 336.673C315.534 337.473 316.734 337.74 318.601 337.207C320.868 336.54 321.001 336.673 319.534 337.74C317.401 339.207 318.468 341.34 320.734 339.873C322.601 338.807 322.601 335.207 320.734 335.207C319.801 335.207 319.401 333.34 319.801 330.54C320.068 328.007 319.801 325.873 319.268 325.873C318.734 325.873 318.068 326.94 318.068 328.14Z" fill="#47A537"/>
<path d="M313.134 339.073C313.668 340.807 315.534 341.207 315.668 339.607C315.668 339.073 315.001 338.407 314.201 338.007C313.268 337.74 312.734 338.273 313.134 339.073Z" fill="#47A537"/>
</svg>
